<svg xmlns="http://www.w3.org/2000/svg" viewBox="0 0 304.33 69.57"><defs><style>.cls-1{fill:#365ca0;stroke:#365ca0;stroke-miterlimit:10;}</style></defs><g id="レイヤー_2" data-name="レイヤー 2"><g id="レイヤー_1-2" data-name="レイヤー 1"><path class="cls-1" d="M68.09,66.17h-12l-5-5.09a31.91,31.91,0,0,1-17.63,5.09,33,33,0,0,1-22.36-8.54Q.5,48.24.5,33.64A31.58,31.58,0,0,1,10.55,9.77,32.36,32.36,0,0,1,33.6.5,32.49,32.49,0,0,1,55.21,8.62Q66.7,18.39,66.7,34.09q0,12.3-9.07,21.86ZM41.8,40,51,49.1a21.66,21.66,0,0,0,6.07-15.62,23.48,23.48,0,0,0-6.77-17.11A22.62,22.62,0,0,0,33.48,9.48a22.12,22.12,0,0,0-16.74,6.89q-6.6,6.86-6.6,17.35Q10.14,44,17,50.5a22.91,22.91,0,0,0,16.2,6.72,22.33,22.33,0,0,0,11.2-2.83L29.46,40Z"/><path class="cls-1" d="M107.59,18.44H85.82v13H107v7.7H85.82V57.32h21.77V65h-30V10.74h30Z"/><path class="cls-1" d="M132.58,36.65,117.64,10.74H127l10.38,18.38,10.89-18.38h9.39L142,36.65,158.38,65h-9.17l-12-20.78L124.81,65h-9.28Z"/><path class="cls-1" d="M172.45,10.74V57.32h16V65H164.26V10.74Z"/><path class="cls-1" d="M204.37,10.74V65h-8.19V10.74Z"/><path class="cls-1" d="M216,65V7l39.59,41.42V10.74h8.19V68.32L224.16,27V65Z"/><path class="cls-1" d="M303.83,18.44H282.07v13H303.2v7.7H282.07V57.32h21.76V65H273.88V10.74h29.95Z"/></g></g></svg>