<svg id="レイヤー_1" data-name="レイヤー 1" xmlns="http://www.w3.org/2000/svg" viewBox="0 0 512 480"><defs><style>.cls-1{fill:#f49e17;}.cls-2{fill:#f5c324;}.cls-3{fill:#ed6b1b;}.cls-4{fill:#464d5c;}.cls-5{fill:#2e3443;}.cls-6{fill:#5f6775;}</style></defs><path class="cls-1" d="M599.88,559.93,785.05,369.1c6.16-6.34-16.44-28.62-22.63-22.63L571.6,531.64a20,20,0,1,0,27.85,28.71Z" transform="translate(-565.52 -310)"/><path class="cls-2" d="M770.23,352.83a13.57,13.57,0,0,0-4.76-2.35L575.08,535.23a15,15,0,0,0,.09,21.63l.1-.11c-3.85-4-.68-14.08,3.29-17.93Z" transform="translate(-565.52 -310)"/><path class="cls-3" d="M782.26,357.62c-.16.16-189.61,195.4-189.77,195.55-3.92,3.81-17.18,10.74-21.07,6.72l-.08.21a20,20,0,0,0,28.54-.17L785.05,369.1C787.35,366.73,785.63,362.13,782.26,357.62Z" transform="translate(-565.52 -310)"/><path class="cls-4" d="M629.52,310c105.6,1,191,86.4,192,192A389.22,389.22,0,0,0,629.52,310Z" transform="translate(-565.52 -310)"/><path class="cls-4" d="M783.7,382l-32.32,33.31a4,4,0,0,1-5.7,0l-29.49-29.49a4,4,0,0,1,0-5.7l33.3-32.31a4,4,0,0,1,5.61,0l28.5,28.5A4,4,0,0,1,783.7,382Z" transform="translate(-565.52 -310)"/><path class="cls-5" d="M783.7,382a4,4,0,0,0-.05-5.61l-5.7-5.7-37.88,39,5.61,5.62a4,4,0,0,0,5.7,0Z" transform="translate(-565.52 -310)"/><polygon class="cls-6" points="191.02 47.75 186.78 43.51 156.35 73.03 160.59 77.28 191.02 47.75"/><polygon class="cls-6" points="448 416 399 177 280 236 277 270 264 258 192 416 64 480 512 480 448 416"/><polygon class="cls-4" points="224 448 179.2 480 512 480 448 416 399 177 288 256 224 448"/><polygon class="cls-5" points="426.67 480 512 480 448 416 399 177 416 448 426.67 480"/><path class="cls-2" d="M802.52,573,747,630.55a80.88,80.88,0,0,1-10.75-12.81Z" transform="translate(-565.52 -310)"/><path class="cls-1" d="M789.52,534l-79.95-2.79a79.59,79.59,0,0,1,1.17-11.1,80.48,80.48,0,0,1,2.7-10.83Z" transform="translate(-565.52 -310)"/><path class="cls-1" d="M898.52,489l53.69-79.59a97.86,97.86,0,0,1,8,6,95.16,95.16,0,0,1,7.35,6.85Z" transform="translate(-565.52 -310)"/><path class="cls-2" d="M851.52,487l-8.36-79.56a79.74,79.74,0,0,1,16.73,0Z" transform="translate(-565.52 -310)"/></svg>