<svg id="レイヤー_1" data-name="レイヤー 1" xmlns="http://www.w3.org/2000/svg" viewBox="0 0 512 462"><defs><style>.cls-1{fill:#2caabe;}.cls-2{fill:#1a92a6;}.cls-3{fill:#127b90;}.cls-4{fill:#5f6775;}.cls-5{fill:#2e3443;}.cls-6{fill:#464d5c;}.cls-7{fill:#e8402f;}.cls-8{fill:#cb3425;}.cls-9{fill:#fff;}.cls-10{fill:#e8eaef;}</style></defs><rect class="cls-1" x="705.5" y="525" width="304" height="144" transform="translate(-730.19 81.39) rotate(-24)"/><ellipse class="cls-2" cx="857.5" cy="597" rx="48" ry="56" transform="translate(-730.19 81.39) rotate(-24)"/><path class="cls-1" d="M870.41,637.23l-4-9.1c-6,2.44-12.66,3.38-17,2.64l-1.39-9.95a32.34,32.34,0,0,0,16.47-2.39c5.91-2.63,8.65-7.33,6.64-11.84-1.87-4.21-6.37-5.48-14.44-4.92-11.44.82-19.82-.84-23.7-9.56-3.6-8.07-.73-16.77,8-22.67l-4.1-9.2,7.7-3.43,3.88,8.73a32.82,32.82,0,0,1,14.33-2.66l1.31,9.75a30.51,30.51,0,0,0-14.18,2.49c-6.57,2.93-7.41,7.35-6,10.54,1.71,3.84,6,4.5,15.44,4.13,12.27-.73,19.21,2.24,22.93,10.59,3.55,8,1.15,17.48-8.42,23.76l4.3,9.66Z" transform="translate(-561.5 -319)"/><path class="cls-2" d="M967.07,469.4,689.36,593.05,747.93,724.6,1025.64,601Zm32,91.56a48.16,48.16,0,0,0-19.93,51.93L787.91,698A48.15,48.15,0,0,0,736,678.1L715.92,633a48.16,48.16,0,0,0,19.93-51.93L927.09,496A48.15,48.15,0,0,0,979,515.9Z" transform="translate(-561.5 -319)"/><circle class="cls-2" cx="758.84" cy="640.93" r="8" transform="translate(-718.64 706.13) rotate(-62.94)"/><path class="cls-2" d="M962.56,550.23A8,8,0,1,1,952,546.17,8,8,0,0,1,962.56,550.23Z" transform="translate(-561.5 -319)"/><rect class="cls-1" x="760.96" y="573" width="304" height="144" transform="translate(-642.38 -185.66) rotate(-8)"/><ellipse class="cls-2" cx="912.96" cy="645" rx="48" ry="56" transform="matrix(0.99, -0.14, 0.14, 0.99, -642.38, -185.66)"/><path class="cls-1" d="M914.28,687.23l-1.39-9.86c-6.43.69-13.1-.24-17.1-2.16l1.4-10a32.34,32.34,0,0,0,16.5,2.24c6.4-.9,10.33-4.66,9.64-9.54-.64-4.58-4.61-7-12.52-8.71-11.22-2.37-18.82-6.28-20.15-15.73-1.23-8.75,3.92-16.32,13.94-19.59l-1.4-10,8.34-1.17,1.32,9.45a32.93,32.93,0,0,1,14.51,1.39l-1.43,9.74a30.51,30.51,0,0,0-14.32-1.51c-7.11,1-9.14,5-8.65,8.48.58,4.16,4.57,6,13.7,8.23,12,2.67,17.84,7.45,19.12,16.5,1.21,8.64-3.72,17.11-14.64,20.51l1.47,10.48Z" transform="translate(-561.5 -319)"/><path class="cls-2" d="M1053.46,552.55l-301,42.3c.52,3.69,19.28,137.19,20,142.6l301-42.3C1073,691.46,1054.22,558,1053.46,552.55Zm5.53,96.84a48.16,48.16,0,0,0-33.48,44.42L818.22,722.94a48.15,48.15,0,0,0-44.43-33.47l-6.86-48.86a48.15,48.15,0,0,0,33.47-44.42l207.3-29.13a48.15,48.15,0,0,0,44.42,33.47Z" transform="translate(-561.5 -319)"/><circle class="cls-2" cx="806.01" cy="660.03" r="8" transform="translate(-782.66 167.2) rotate(-29.71)"/><path class="cls-2" d="M1026.84,629a8,8,0,1,1-9-6.8A8,8,0,0,1,1026.84,629Z" transform="translate(-561.5 -319)"/><rect class="cls-1" x="176" y="318" width="304" height="144"/><ellipse class="cls-2" cx="328" cy="390" rx="48" ry="56"/><path class="cls-1" d="M884.93,751V741c-6.47-.21-12.94-2.06-16.63-4.51l2.77-9.66a32.37,32.37,0,0,0,16,4.51c6.47,0,10.88-3.17,10.88-8.11,0-4.61-3.59-7.6-11.19-10.37C876,709,869,704.08,869,694.53c0-8.84,6.16-15.61,16.54-17.46V667H894v9.55a33,33,0,0,1,14.17,3.39l-2.77,9.44a30.73,30.73,0,0,0-14-3.48c-7.19,0-9.76,3.69-9.76,7.19,0,4.2,3.7,6.57,12.43,10.06,11.5,4.31,16.63,9.86,16.63,19,0,8.73-6.05,16.43-17.35,18.28V751Z" transform="translate(-561.5 -319)"/><path class="cls-2" d="M1041.5,637h-304V781h304Zm-8,96.67A48.14,48.14,0,0,0,994.17,773H784.83a48.14,48.14,0,0,0-39.33-39.33V684.33A48.14,48.14,0,0,0,784.83,645H994.17a48.14,48.14,0,0,0,39.33,39.33Z" transform="translate(-561.5 -319)"/><circle class="cls-2" cx="220" cy="390" r="8"/><circle class="cls-2" cx="435" cy="390" r="8"/><path class="cls-2" d="M848.79,522.06l-1.14.51c77,98.53,15.43,245.17-110.15,257.64V781h69.81C907.64,732.27,928.26,599,848.79,522.06Z" transform="translate(-561.5 -319)"/><path class="cls-3" d="M885.13,698.78c1.75-4.18,3.33-8.46,4.73-12.81C881.06,686.69,879,694.51,885.13,698.78Z" transform="translate(-561.5 -319)"/><path class="cls-3" d="M784.83,773a46.22,46.22,0,0,0-1-4.59,159.07,159.07,0,0,1-46.32,11.8V781h69.81a160.48,160.48,0,0,0,14.5-8Z" transform="translate(-561.5 -319)"/><path class="cls-3" d="M877.94,654.64a159.52,159.52,0,0,1-34.53,70,58.89,58.89,0,0,0,10.59,22A160.4,160.4,0,0,0,879.93,710c-6.79-3.51-10.92-8.11-10.92-15.44,0-8.84,6.16-15.61,16.54-17.46V667H894v3.55a159.6,159.6,0,0,0,2.67-16.93A41.54,41.54,0,0,0,877.94,654.64Z" transform="translate(-561.5 -319)"/><path class="cls-3" d="M861.37,543.27a159,159,0,0,1,16.14,42.08l10.93-1.53a159.69,159.69,0,0,0-19.69-38.33A49.17,49.17,0,0,0,861.37,543.27Z" transform="translate(-561.5 -319)"/><path class="cls-3" d="M891.52,637a16.55,16.55,0,0,1,4.9-18.6,159.64,159.64,0,0,0-4.8-24.5,45.15,45.15,0,0,0-11.22,8.36,160.85,160.85,0,0,1-.69,42.74H897.3q.19-4,.2-8Z" transform="translate(-561.5 -319)"/><path class="cls-3" d="M852.52,529.16l2.24-1q-2.89-3.12-6-6.1l-1.14.51Q850.17,525.8,852.52,529.16Z" transform="translate(-561.5 -319)"/><path class="cls-4" d="M721.5,455a68,68,0,1,1,68-68A68.07,68.07,0,0,1,721.5,455Zm0-128a60,60,0,1,0,60,60A60.07,60.07,0,0,0,721.5,327Z" transform="translate(-561.5 -319)"/><path class="cls-5" d="M781.49,419l-5.94-5.94a60,60,0,0,1-73.2,30.8l10.59,10.59A68,68,0,0,0,781.49,419Z" transform="translate(-561.5 -319)"/><rect class="cls-5" x="148" y="112" width="24" height="32"/><rect class="cls-6" x="136" y="64" width="48" height="48"/><rect class="cls-5" x="172" y="64" width="12" height="48"/><rect class="cls-4" x="128" y="104" width="64" height="8"/><rect class="cls-6" x="176" y="104" width="16" height="8"/><rect class="cls-5" x="808.64" y="478.97" width="16" height="12" transform="translate(-610.31 557.23) rotate(-55.03)"/><rect class="cls-6" x="816.1" y="456.58" width="24" height="24" transform="translate(-591.99 559.63) rotate(-55.03)"/><rect class="cls-5" x="823.48" y="470.74" width="24" height="6" transform="translate(-593.07 567.88) rotate(-55.03)"/><circle class="cls-7" cx="160" cy="302" r="160"/><circle class="cls-8" cx="160" cy="302" r="144"/><circle class="cls-9" cx="160" cy="302" r="128"/><path class="cls-10" d="M601.5,629a128,128,0,0,1,214.42-94.42A128,128,0,1,0,635.08,715.42,127.55,127.55,0,0,1,601.5,629Z" transform="translate(-561.5 -319)"/><rect class="cls-6" x="158" y="414" width="4" height="16"/><rect class="cls-6" x="158" y="174" width="4" height="16"/><rect class="cls-6" x="779.5" y="716.92" width="4" height="16" transform="translate(-819.26 168.87) rotate(-30)"/><rect class="cls-6" x="659.5" y="509.08" width="4" height="16" transform="translate(-731.41 81.02) rotate(-30)"/><rect class="cls-6" x="823.42" y="673" width="4" height="16" transform="translate(-738.55 736.34) rotate(-60)"/><rect class="cls-6" x="615.58" y="553" width="4" height="16" transform="translate(-738.55 496.34) rotate(-60)"/><rect class="cls-6" x="272" y="300" width="16" height="4"/><rect class="cls-6" x="32" y="300" width="16" height="4"/><rect class="cls-6" x="817.42" y="559" width="16" height="4" transform="translate(-731.42 168.91) rotate(-30)"/><rect class="cls-6" x="609.58" y="679" width="16" height="4" transform="translate(-819.27 81.06) rotate(-30)"/><rect class="cls-6" x="773.5" y="515.08" width="16" height="4" transform="translate(-618.57 616.31) rotate(-60)"/><rect class="cls-6" x="653.5" y="722.92" width="16" height="4" transform="translate(-858.56 616.3) rotate(-60)"/><path class="cls-10" d="M741.5,625a16,16,0,0,0-1.55-6.84L804.5,546l-72.16,64.55a15.91,15.91,0,0,0-16.64,1.82l-68-68-2.83,2.83,68,68a15.89,15.89,0,0,0-2.49,15L697.22,642l11.31,11.31,11.77-13.16a15.89,15.89,0,0,0,15-2.49L746.71,649l2.83-2.83L738.13,634.8A15.94,15.94,0,0,0,741.5,625Z" transform="translate(-561.5 -319)"/><polygon class="cls-6" points="131.72 318.97 239 223 143.03 330.28 131.72 318.97"/><circle class="cls-6" cx="160" cy="302" r="16"/><circle class="cls-7" cx="160" cy="302" r="8"/><rect class="cls-7" x="691.22" y="520.72" width="4" height="144" transform="translate(-777.58 344.78) rotate(-45)"/></svg>