<?xml version="1.0" encoding="utf-8"?>
<!-- Generator: Adobe Illustrator 25.2.1, SVG Export Plug-In . SVG Version: 6.00 Build 0)  -->
<svg version="1.1" id="レイヤー_1" xmlns="http://www.w3.org/2000/svg" xmlns:xlink="http://www.w3.org/1999/xlink" x="0px"
	 y="0px" viewBox="0 0 480 512" style="enable-background:new 0 0 480 512;" xml:space="preserve">
<style type="text/css">
	.st0{fill:#E8EAEF;}
	.st1{fill:#3861AB;}
	.st2{fill:#FFFFFF;}
	.st3{fill:#464D5C;}
	.st4{fill:#D8DAE0;}
	.st5{fill:#2CAABE;}
	.st6{fill:#E8402F;}
</style>
<rect y="32" class="st0" width="448" height="480"/>
<rect y="32" class="st1" width="448" height="128"/>
<circle class="st2" cx="96" cy="96" r="16"/>
<circle class="st2" cx="352" cy="96" r="16"/>
<path class="st3" d="M96,104c-4.4,0-8-3.6-8-8V8c0-4.4,3.6-8,8-8s8,3.6,8,8v88C104,100.4,100.4,104,96,104z"/>
<path class="st3" d="M352,104c-4.4,0-8-3.6-8-8V8c0-4.4,3.6-8,8-8s8,3.6,8,8v88C360,100.4,356.4,104,352,104z"/>
<rect x="40" y="432" class="st4" width="48" height="48"/>
<rect x="120" y="432" class="st5" width="48" height="48"/>
<rect x="200" y="432" class="st4" width="48" height="48"/>
<rect x="40" y="352" class="st4" width="48" height="48"/>
<rect x="120" y="352" class="st4" width="48" height="48"/>
<rect x="200" y="352" class="st5" width="48" height="48"/>
<rect x="40" y="272" class="st5" width="48" height="48"/>
<rect x="120" y="272" class="st4" width="48" height="48"/>
<rect x="200" y="272" class="st4" width="48" height="48"/>
<rect x="200" y="192" class="st4" width="48" height="48"/>
<rect x="280" y="192" class="st4" width="48" height="48"/>
<rect x="360" y="192" class="st6" width="48" height="48"/>
<circle class="st3" cx="352" cy="384" r="128"/>
<circle class="st0" cx="352" cy="384" r="112"/>
<path class="st4" d="M248,384c0-60.3,47.7-109.8,108-111.9c-1.3,0-2.7-0.1-4-0.1c-61.9,0-112,50.1-112,112s50.1,112,112,112
	c1.3,0,2.7,0,4-0.1C295.7,493.8,248,444.3,248,384z"/>
<rect x="348" y="292" class="st3" width="8" height="92"/>
<rect x="273.5" y="412.5" transform="matrix(0.7071 -0.7071 0.7071 0.7071 -200.9576 347.8989)" class="st3" width="92" height="8"/>
<circle class="st3" cx="352" cy="384" r="16"/>
</svg>
