<?xml version="1.0" encoding="utf-8"?>
<!-- Generator: Adobe Illustrator 25.2.1, SVG Export Plug-In . SVG Version: 6.00 Build 0)  -->
<svg version="1.1" id="レイヤー_1" xmlns="http://www.w3.org/2000/svg" xmlns:xlink="http://www.w3.org/1999/xlink" x="0px"
	 y="0px" viewBox="0 0 512 448" style="enable-background:new 0 0 512 448;" xml:space="preserve">
<style type="text/css">
	.st0{fill:#3861AB;}
	.st1{fill:#5681BF;}
	.st2{fill:#E8EAEF;}
</style>
<path class="st0" d="M212,352c-21.1,53.4-54.6,80.9-96,96c16.3-32.9,28.3-72.7,0-96H212z"/>
<ellipse class="st0" cx="256" cy="192" rx="256" ry="192"/>
<ellipse transform="matrix(0.9613 -0.2756 0.2756 0.9613 -24.0588 50.0065)" class="st1" cx="165.9" cy="110.6" rx="128" ry="72.3"/>
<path class="st0" d="M434.4,54.3C453.3,81.1,464,111.6,464,144c0,106-114.6,192-256,192c-69.4,0-132.3-20.7-178.4-54.3
	C72.6,342.5,157.8,384,256,384c141.4,0,256-86,256-192C512,138,482.2,89.2,434.4,54.3z"/>
<circle class="st2" cx="256" cy="192" r="24"/>
<circle class="st2" cx="352" cy="192" r="24"/>
<circle class="st2" cx="160" cy="192" r="24"/>
</svg>
