<svg id="レイヤー_1" data-name="レイヤー 1" xmlns="http://www.w3.org/2000/svg" viewBox="0 0 512 448"><defs><style>.cls-1{fill:#d8dae0;}.cls-2{fill:#e8eaef;}.cls-3{fill:#464d5c;}.cls-4{fill:#2caabe;}.cls-5{fill:#1a92a6;}</style></defs><polygon class="cls-1" points="320 448 192 448 208 384 304 384 320 448"/><rect class="cls-2" x="160" y="440" width="192" height="8"/><path class="cls-2" d="M1060.5,710h-480a16,16,0,0,1-16-16V662h512v32A16,16,0,0,1,1060.5,710Z" transform="translate(-564.5 -326)"/><path class="cls-3" d="M1076.5,662h-512V342a16,16,0,0,1,16-16h480a16,16,0,0,1,16,16Z" transform="translate(-564.5 -326)"/><rect class="cls-4" x="24" y="23" width="464" height="290"/><polygon class="cls-5" points="388 130.63 388 304 444 304 444 74.63 388 130.63"/><polygon class="cls-5" points="260 258.63 260 304 316 304 316 202.63 260 258.63"/><polygon class="cls-5" points="86.63 304 124 304 124 266.63 86.63 304"/><polygon class="cls-5" points="324 194.63 324 304 380 304 380 138.63 324 194.63"/><polygon class="cls-5" points="132 258.63 132 304 188 304 188 202.63 132 258.63"/><polygon class="cls-5" points="196 202.63 196 304 252 304 252 258.63 196 202.63"/><polygon class="cls-3" points="416 40 430.34 54.34 256 228.69 192 164.69 51.69 305 74.31 305 192 187.31 256 251.31 441.66 65.66 456 80 464 32 416 40"/></svg>